<?xml version="1.0" encoding="UTF-8" standalone="no"?>
<svg
   xmlns:dc="http://purl.org/dc/elements/1.1/"
   xmlns:cc="http://creativecommons.org/ns#"
   xmlns:rdf="http://www.w3.org/1999/02/22-rdf-syntax-ns#"
   xmlns:svg="http://www.w3.org/2000/svg"
   xmlns="http://www.w3.org/2000/svg"
   xmlns:sodipodi="http://sodipodi.sourceforge.net/DTD/sodipodi-0.dtd"
   xmlns:inkscape="http://www.inkscape.org/namespaces/inkscape"
   inkscape:export-ydpi="1.5000001"
   inkscape:export-xdpi="1.5000001"
   inkscape:export-filename="/home/matt/Desktop/tagviewer/icons/png/16x16.png"
   sodipodi:docname="icon.svg"
   inkscape:version="1.0 (4035a4fb49, 2020-05-01)"
   id="svg8"
   version="1.1"
   viewBox="0 0 1024 1024"
   height="1024"
   width="1024">
  <defs
     id="defs2" />
  <sodipodi:namedview
     inkscape:window-maximized="0"
     inkscape:window-y="181"
     inkscape:window-x="219"
     inkscape:window-height="1020"
     inkscape:window-width="1491"
     units="px"
     showgrid="false"
     inkscape:document-rotation="0"
     inkscape:current-layer="g1552"
     inkscape:document-units="px"
     inkscape:cy="303.36583"
     inkscape:cx="326.78203"
     inkscape:zoom="0.40150637"
     inkscape:pageshadow="2"
     inkscape:pageopacity="0.0"
     borderopacity="1.0"
     bordercolor="#666666"
     pagecolor="#ffffff"
     id="base" />
  <metadata
     id="metadata5">
    <rdf:RDF>
      <cc:Work
         rdf:about="">
        <dc:format>image/svg+xml</dc:format>
        <dc:type
           rdf:resource="http://purl.org/dc/dcmitype/StillImage" />
        <dc:title></dc:title>
      </cc:Work>
    </rdf:RDF>
  </metadata>
  <g
     id="layer1"
     inkscape:groupmode="layer"
     inkscape:label="Layer 1">
    <g
       transform="matrix(35.597585,0,0,35.597585,80.819428,58.162473)"
       id="g1530">
      <path
         id="path2"
         fill="none"
         d="M 0,0 H 24 V 24 H 0 Z" />
      <path
         style="stroke-width:0.486729"
         id="path78"
         fill="none"
         d="M 24.225271,13.816717 H 12.543768 V 25.49822 h 11.681503 z" />
      <g
         transform="matrix(1.1925893,0,0,1.1925893,-1.9793684,-2.2163951)"
         id="g933">
        <g
           transform="matrix(0.95918371,0,0,0.95918371,0.48553918,0.51674226)"
           id="g1552">
          <path
             style="fill:#8974b2;fill-opacity:1;stroke-width:1.3321787;stroke-miterlimit:4;stroke-dasharray:none;stroke:#ffffff;stroke-opacity:1;paint-order:stroke fill markers"
             id="path4"
             d="M 22.253372,12.187126 12.347013,2.3276226 C 11.950759,1.9332424 11.400406,1.6922325 10.795018,1.6922325 H 3.0900686 c -1.2107771,0 -2.20141293,0.9859502 -2.20141293,2.1910003 v 7.6685032 c 0,0.602524 0.24215533,1.150275 0.64941693,1.55561 l 9.9063624,9.8595 c 0.396253,0.394382 0.946606,0.635391 1.551997,0.635391 0.605387,0 1.15574,-0.241009 1.551995,-0.646343 l 7.704945,-7.668502 c 0.407262,-0.394381 0.649416,-0.942131 0.649416,-1.544655 0,-0.602527 -0.253163,-1.16123 -0.649416,-1.555611 z M 4.7411284,7.1697333 c -0.9135863,0 -1.6510598,-0.7339849 -1.6510598,-1.6432501 0,-0.9092651 0.7374735,-1.6432504 1.6510598,-1.6432504 0.9135866,0 1.6510599,0.7339853 1.6510599,1.6432504 0,0.9092652 -0.7374733,1.6432501 -1.6510599,1.6432501 z" />
          <path
             style="fill:#74b29e;fill-opacity:1;stroke:#ffffff;stroke-width:1.3321787;stroke-miterlimit:4;stroke-dasharray:none;stroke-opacity:1;paint-order:stroke markers fill"
             id="path80"
             d="M 4.8560274,22.962079 H 1.7076265 v -3.148402 l 9.2856915,-9.285681 3.1484,3.148398 z M 12.973119,8.5481889 c 0.327434,-0.3274343 0.856366,-0.3274344 1.183799,0 l 1.964603,1.9646021 c 0.327434,0.327438 0.327434,0.856368 0,1.1838 L 14.5851,13.233012 11.436701,10.084608 Z"
             sodipodi:nodetypes="ccccccscccccs" />
        </g>
      </g>
    </g>
  </g>
</svg>
